<svg xmlns="http://www.w3.org/2000/svg" xmlns:xlink="http://www.w3.org/1999/xlink" version="1.1" width="1232" height="1196" name="tree_v3.svg" y="0" viewBox="0 0 1232 1196">
<polyline points="1232,1196 0,1196 0,0 1232,0 1232,1196" fill="white" />
<text x="317" y="37" fill="#000000" font-size="15" font-family="default" > XP 037285547.1 phosphatidylinositol 5-phosphate 4-kinase type-2 alpha-like isoform X2 Rhipicephalus microplus</text>
<polyline points="312,44 312,32 315,32" fill="none" stroke="#000000" stroke-width="1" stroke-linecap="square"/>
<text x="315" y="61" fill="#000000" font-size="15" font-family="default" > XP 037511086.1 phosphatidylinositol 5-phosphate 4-kinase type-2 alpha-like Rhipicephalus sanguineus</text>
<polyline points="312,45 312,56 313,56" fill="none" stroke="#000000" stroke-width="1" stroke-linecap="square"/>
<polyline points="292,62 292,44 312,44" fill="none" stroke="#000000" stroke-width="1" stroke-linecap="square"/>
<text x="308" y="85" fill="#000000" font-size="15" font-family="default" > XP 029833426.1 phosphatidylinositol 5-phosphate 4-kinase type-2 alpha isoform X3 Ixodes scapularis</text>
<polyline points="292,63 292,80 306,80" fill="none" stroke="#000000" stroke-width="1" stroke-linecap="square"/>
<polyline points="257,92 257,62 292,62" fill="none" stroke="#000000" stroke-width="1" stroke-linecap="square"/>
<text x="351" y="109" fill="#000000" font-size="15" font-family="default" > XP 003743946.1 phosphatidylinositol 5-phosphate 4-kinase type-2 alpha Galendromus occidentalis</text>
<polyline points="319,122 319,104 349,104" fill="none" stroke="#000000" stroke-width="1" stroke-linecap="square"/>
<text x="363" y="133" fill="#000000" font-size="15" font-family="default" > XP 022646256.1 phosphatidylinositol 5-phosphate 4-kinase type-2 beta-like isoform X2 Varroa destructor</text>
<polyline points="340,140 340,128 361,128" fill="none" stroke="#000000" stroke-width="1" stroke-linecap="square"/>
<text x="363" y="157" fill="#000000" font-size="15" font-family="default" > OQR76520.1 phosphatidylinositol 5-phosphate 4-kinase type-2 alpha-like Tropilaelaps mercedesae</text>
<polyline points="340,141 340,152 361,152" fill="none" stroke="#000000" stroke-width="1" stroke-linecap="square"/>
<polyline points="319,123 319,140 340,140" fill="none" stroke="#000000" stroke-width="1" stroke-linecap="square"/>
<polyline points="257,93 257,122 319,122" fill="none" stroke="#000000" stroke-width="1" stroke-linecap="square"/>
<polyline points="236,145 236,92 257,92" fill="none" stroke="#000000" stroke-width="1" stroke-linecap="square"/>
<text x="282" y="181" fill="#000000" font-size="15" font-family="default" > XP 023213596.1 phosphatidylinositol 5-phosphate 4-kinase type-2 alpha-like Centruroides sculpturatus</text>
<polyline points="251,198 251,176 280,176" fill="none" stroke="#000000" stroke-width="1" stroke-linecap="square"/>
<text x="322" y="205" fill="#000000" font-size="15" font-family="default" > XP 015918291.1 phosphatidylinositol 5-phosphate 4-kinase type-2 beta-like isoform X1 Parasteatoda tepidariorum</text>
<polyline points="288,221 288,200 320,200" fill="none" stroke="#000000" stroke-width="1" stroke-linecap="square"/>
<text x="328" y="229" fill="#000000" font-size="15" font-family="default" > GBN25194.1 Phosphatidylinositol 5-phosphate 4-kinase type-2 alpha partial Araneus ventricosus</text>
<polyline points="302,242 302,224 326,224" fill="none" stroke="#000000" stroke-width="1" stroke-linecap="square"/>
<text x="337" y="253" fill="#000000" font-size="15" font-family="default" > KFM60971.1 Phosphatidylinositol-5-phosphate 4-kinase type-2 beta partial Stegodyphus mimosarum</text>
<polyline points="328,260 328,248 335,248" fill="none" stroke="#000000" stroke-width="1" stroke-linecap="square"/>
<text x="349" y="277" fill="#000000" font-size="15" font-family="default" > XP 035223281.1 phosphatidylinositol 5-phosphate 4-kinase type-2 alpha-like Stegodyphus dumicola</text>
<polyline points="328,261 328,272 347,272" fill="none" stroke="#000000" stroke-width="1" stroke-linecap="square"/>
<polyline points="302,243 302,260 328,260" fill="none" stroke="#000000" stroke-width="1" stroke-linecap="square"/>
<polyline points="288,222 288,242 302,242" fill="none" stroke="#000000" stroke-width="1" stroke-linecap="square"/>
<polyline points="251,199 251,221 288,221" fill="none" stroke="#000000" stroke-width="1" stroke-linecap="square"/>
<polyline points="236,146 236,198 251,198" fill="none" stroke="#000000" stroke-width="1" stroke-linecap="square"/>
<polyline points="216,220 216,145 236,145" fill="none" stroke="#000000" stroke-width="1" stroke-linecap="square"/>
<text x="370" y="301" fill="#000000" font-size="15" font-family="default" > XP 022256953.1 phosphatidylinositol 5-phosphate 4-kinase type-2 beta-like Limulus polyphemus</text>
<polyline points="216,221 216,296 368,296" fill="none" stroke="#000000" stroke-width="1" stroke-linecap="square"/>
<polyline points="182,290 182,220 216,220" fill="none" stroke="#000000" stroke-width="1" stroke-linecap="square"/>
<text x="308" y="325" fill="#000000" font-size="15" font-family="default" > XP 022185496.1 phosphatidylinositol 5-phosphate 4-kinase type-2 alpha isoform X2 Nilaparvata lugens</text>
<polyline points="258,332 258,320 306,320" fill="none" stroke="#000000" stroke-width="1" stroke-linecap="square"/>
<text x="294" y="349" fill="#000000" font-size="15" font-family="default" > XP 008470006.2 phosphatidylinositol 5-phosphate 4-kinase type-2 alpha Diaphorina citri</text>
<polyline points="258,333 258,344 292,344" fill="none" stroke="#000000" stroke-width="1" stroke-linecap="square"/>
<polyline points="203,360 203,332 258,332" fill="none" stroke="#000000" stroke-width="1" stroke-linecap="square"/>
<text x="352" y="373" fill="#000000" font-size="15" font-family="default" > XP 023334787.1 phosphatidylinositol 5-phosphate 4-kinase type-2 alpha-like isoform X2 Eurytemora affinis</text>
<polyline points="222,389 222,368 350,368" fill="none" stroke="#000000" stroke-width="1" stroke-linecap="square"/>
<text x="326" y="397" fill="#000000" font-size="15" font-family="default" > KAB7501447.1 Phosphatidylinositol 5-phosphate 4-kinase type-2 alpha Armadillidium nasatum</text>
<polyline points="273,410 273,392 324,392" fill="none" stroke="#000000" stroke-width="1" stroke-linecap="square"/>
<text x="325" y="421" fill="#000000" font-size="15" font-family="default" > MPC13413.1 Phosphatidylinositol 5-phosphate 4-kinase type-2 alpha Portunus trituberculatus</text>
<polyline points="296,428 296,416 323,416" fill="none" stroke="#000000" stroke-width="1" stroke-linecap="square"/>
<text x="323" y="445" fill="#000000" font-size="15" font-family="default" > XP 037774940.1 phosphatidylinositol 5-phosphate 4-kinase type-2 alpha-like Penaeus monodon</text>
<polyline points="296,429 296,440 321,440" fill="none" stroke="#000000" stroke-width="1" stroke-linecap="square"/>
<polyline points="273,411 273,428 296,428" fill="none" stroke="#000000" stroke-width="1" stroke-linecap="square"/>
<polyline points="222,390 222,410 273,410" fill="none" stroke="#000000" stroke-width="1" stroke-linecap="square"/>
<polyline points="203,361 203,389 222,389" fill="none" stroke="#000000" stroke-width="1" stroke-linecap="square"/>
<polyline points="182,291 182,360 203,360" fill="none" stroke="#000000" stroke-width="1" stroke-linecap="square"/>
<polyline points="135,405 135,290 182,290" fill="none" stroke="#000000" stroke-width="1" stroke-linecap="square"/>
<text x="298" y="469" fill="#000000" font-size="15" font-family="default" > XP 035688512.1 phosphatidylinositol 5-phosphate 4-kinase type-2 alpha-like isoform X1 Branchiostoma floridae</text>
<polyline points="171,520 171,464 296,464" fill="none" stroke="#000000" stroke-width="1" stroke-linecap="square"/>
<text x="412" y="493" fill="#000000" font-size="15" font-family="default" > XP 027039642.1 phosphatidylinositol 5-phosphate 4-kinase type-2 alpha-like isoform X1 Pocillopora damicornis</text>
<polyline points="406,500 406,488 410,488" fill="none" stroke="#000000" stroke-width="1" stroke-linecap="square"/>
<text x="458" y="517" fill="#000000" font-size="15" font-family="default" > PFX24226.1 Phosphatidylinositol 5-phosphate 4-kinase type-2 beta Stylophora pistillata</text>
<polyline points="406,501 406,512 456,512" fill="none" stroke="#000000" stroke-width="1" stroke-linecap="square"/>
<polyline points="390,518 390,500 406,500" fill="none" stroke="#000000" stroke-width="1" stroke-linecap="square"/>
<text x="415" y="541" fill="#000000" font-size="15" font-family="default" > XP 020629999.1 phosphatidylinositol 5-phosphate 4-kinase type-2 alpha-like Orbicella faveolata</text>
<polyline points="390,519 390,536 413,536" fill="none" stroke="#000000" stroke-width="1" stroke-linecap="square"/>
<polyline points="193,577 193,518 390,518" fill="none" stroke="#000000" stroke-width="1" stroke-linecap="square"/>
<text x="344" y="565" fill="#000000" font-size="15" font-family="default" > AAH27459.1 Phosphatidylinositol-5-phosphate 4-kinase type II beta Homo sapiens</text>
<polyline points="330,572 330,560 342,560" fill="none" stroke="#000000" stroke-width="1" stroke-linecap="square"/>
<text x="332" y="589" fill="#000000" font-size="15" font-family="default" > NP 473392.1 phosphatidylinositol 5-phosphate 4-kinase type-2 beta Mus musculus</text>
<polyline points="330,573 330,584 330,584" fill="none" stroke="#000000" stroke-width="1" stroke-linecap="square"/>
<polyline points="305,590 305,572 330,572" fill="none" stroke="#000000" stroke-width="1" stroke-linecap="square"/>
<text x="330" y="613" fill="#000000" font-size="15" font-family="default" > XP 028675740.1 phosphatidylinositol 5-phosphate 4-kinase type-2 beta Erpetoichthys calabaricus</text>
<polyline points="305,591 305,608 328,608" fill="none" stroke="#000000" stroke-width="1" stroke-linecap="square"/>
<polyline points="256,636 256,590 305,590" fill="none" stroke="#000000" stroke-width="1" stroke-linecap="square"/>
<text x="313" y="637" fill="#000000" font-size="15" font-family="default" > XP 026531485.1 phosphatidylinositol 5-phosphate 4-kinase type-2 alpha Notechis scutatus</text>
<polyline points="304,644 304,632 311,632" fill="none" stroke="#000000" stroke-width="1" stroke-linecap="square"/>
<text x="307" y="661" fill="#000000" font-size="15" font-family="default" > XP 007436413.1 phosphatidylinositol 5-phosphate 4-kinase type-2 alpha Python bivittatus</text>
<polyline points="304,645 304,656 305,656" fill="none" stroke="#000000" stroke-width="1" stroke-linecap="square"/>
<polyline points="275,683 275,644 304,644" fill="none" stroke="#000000" stroke-width="1" stroke-linecap="square"/>
<text x="315" y="685" fill="#000000" font-size="15" font-family="default" > XP 029313165.1 phosphatidylinositol 5-phosphate 4-kinase type-2 alpha isoform X2 Cottoperca gobio</text>
<polyline points="308,692 308,680 313,680" fill="none" stroke="#000000" stroke-width="1" stroke-linecap="square"/>
<text x="314" y="709" fill="#000000" font-size="15" font-family="default" > XP 033964521.1 phosphatidylinositol 5-phosphate 4-kinase type-2 alpha isoform X2 Pseudochaenichthys georgianus</text>
<polyline points="308,693 308,704 312,704" fill="none" stroke="#000000" stroke-width="1" stroke-linecap="square"/>
<polyline points="298,722 298,692 308,692" fill="none" stroke="#000000" stroke-width="1" stroke-linecap="square"/>
<text x="307" y="733" fill="#000000" font-size="15" font-family="default" > XP 029482353.1 phosphatidylinositol 5-phosphate 4-kinase type-2 alpha isoform X3 Oncorhynchus nerka</text>
<polyline points="305,752 305,728 305,728" fill="none" stroke="#000000" stroke-width="1" stroke-linecap="square"/>
<text x="309" y="757" fill="#000000" font-size="15" font-family="default" > XP 029552329.1 phosphatidylinositol 5-phosphate 4-kinase type-2 alpha isoform X5 Salmo trutta</text>
<polyline points="306,776 306,752 307,752" fill="none" stroke="#000000" stroke-width="1" stroke-linecap="square"/>
<text x="308" y="781" fill="#000000" font-size="15" font-family="default" > XP 031652414.1 phosphatidylinositol 5-phosphate 4-kinase type-2 alpha isoform X2 Oncorhynchus kisutch</text>
<polyline points="306,788 306,776 306,776" fill="none" stroke="#000000" stroke-width="1" stroke-linecap="square"/>
<text x="308" y="805" fill="#000000" font-size="15" font-family="default" > XP 035597711.1 phosphatidylinositol 5-phosphate 4-kinase type-2 alpha isoform X4 Oncorhynchus keta</text>
<polyline points="306,789 306,800 306,800" fill="none" stroke="#000000" stroke-width="1" stroke-linecap="square"/>
<line x1="306" y1="776" x2="306" y2="800" stroke="#000000" stroke-width="1" stroke-linecap="square"/>
<polyline points="305,753 305,776 306,776" fill="none" stroke="#000000" stroke-width="1" stroke-linecap="square"/>
<polyline points="298,723 298,752 305,752" fill="none" stroke="#000000" stroke-width="1" stroke-linecap="square"/>
<polyline points="275,684 275,722 298,722" fill="none" stroke="#000000" stroke-width="1" stroke-linecap="square"/>
<polyline points="256,637 256,683 275,683" fill="none" stroke="#000000" stroke-width="1" stroke-linecap="square"/>
<polyline points="193,578 193,636 256,636" fill="none" stroke="#000000" stroke-width="1" stroke-linecap="square"/>
<polyline points="171,521 171,577 193,577" fill="none" stroke="#000000" stroke-width="1" stroke-linecap="square"/>
<polyline points="135,406 135,520 171,520" fill="none" stroke="#000000" stroke-width="1" stroke-linecap="square"/>
<polyline points="110,614 110,405 135,405" fill="none" stroke="#000000" stroke-width="1" stroke-linecap="square"/>
<text x="219" y="829" fill="#000000" font-size="15" font-family="default" > XP 013388699.1 phosphatidylinositol 5-phosphate 4-kinase type-2 alpha isoform X1 Lingula anatina</text>
<polyline points="110,615 110,824 217,824" fill="none" stroke="#000000" stroke-width="1" stroke-linecap="square"/>
<polyline points="62,741 62,614 110,614" fill="none" stroke="#000000" stroke-width="1" stroke-linecap="square"/>
<text x="158" y="853" fill="#000000" font-size="15" font-family="default" > XP 034309271.1 phosphatidylinositol 5-phosphate 4-kinase type-2 alpha Crassostrea gigas</text>
<polyline points="79,869 79,848 156,848" fill="none" stroke="#000000" stroke-width="1" stroke-linecap="square"/>
<text x="217" y="877" fill="#000000" font-size="15" font-family="default" > XP 025094188.1 phosphatidylinositol 5-phosphate 4-kinase type-2 alpha-like Pomacea canaliculata</text>
<polyline points="96,890 96,872 215,872" fill="none" stroke="#000000" stroke-width="1" stroke-linecap="square"/>
<text x="171" y="901" fill="#000000" font-size="15" font-family="default" > XP 036361680.1 phosphatidylinositol 5-phosphate 4-kinase type-2 alpha isoform X3 Octopus sinensis</text>
<polyline points="159,908 159,896 169,896" fill="none" stroke="#000000" stroke-width="1" stroke-linecap="square"/>
<text x="173" y="925" fill="#000000" font-size="15" font-family="default" > XP 014773204.1 PREDICTED: phosphatidylinositol 5-phosphate 4-kinase type-2 beta-like Octopus bimaculoides</text>
<polyline points="159,909 159,920 171,920" fill="none" stroke="#000000" stroke-width="1" stroke-linecap="square"/>
<polyline points="96,891 96,908 159,908" fill="none" stroke="#000000" stroke-width="1" stroke-linecap="square"/>
<polyline points="79,870 79,890 96,890" fill="none" stroke="#000000" stroke-width="1" stroke-linecap="square"/>
<polyline points="62,742 62,869 79,869" fill="none" stroke="#000000" stroke-width="1" stroke-linecap="square"/>
<polyline points="56,862 56,741 62,741" fill="none" stroke="#000000" stroke-width="1" stroke-linecap="square"/>
<text x="157" y="949" fill="#000000" font-size="15" font-family="default" > CAC5406758.1 PIP4K2 Mytilus coruscus</text>
<polyline points="149,956 149,944 155,944" fill="none" stroke="#000000" stroke-width="1" stroke-linecap="square"/>
<text x="165" y="973" fill="#000000" font-size="15" font-family="default" > VDH95279.1 1-phosphatidylinositol-5-phosphate 4-kinase Mytilus galloprovincialis</text>
<polyline points="149,957 149,968 163,968" fill="none" stroke="#000000" stroke-width="1" stroke-linecap="square"/>
<polyline points="66,984 66,956 149,956" fill="none" stroke="#000000" stroke-width="1" stroke-linecap="square"/>
<text x="123" y="997" fill="#000000" font-size="15" font-family="default" > XP 021377781.1 phosphatidylinositol 5-phosphate 4-kinase type-2 beta-like Mizuhopecten yessoensis</text>
<polyline points="114,1013 114,992 121,992" fill="none" stroke="#000000" stroke-width="1" stroke-linecap="square"/>
<text x="122" y="1021" fill="#000000" font-size="15" font-family="default" > XP 033762842.1 phosphatidylinositol 5-phosphate 4-kinase type-2 alpha-like Pecten maximus</text>
<polyline points="120,1034 120,1016 120,1016" fill="none" stroke="#000000" stroke-width="1" stroke-linecap="square"/>
<text x="458" y="1045" fill="#000000" font-size="15" font-family="default" > Study Argopecten purpuratus</text>
<polyline points="456,1052 456,1040 456,1040" fill="none" stroke="#000000" stroke-width="1" stroke-linecap="square"/>
<text x="458" y="1069" fill="#000000" font-size="15" font-family="default" > mitochondrion Argopecten purpuratus</text>
<polyline points="456,1053 456,1064 456,1064" fill="none" stroke="#000000" stroke-width="1" stroke-linecap="square"/>
<polyline points="120,1035 120,1052 456,1052" fill="none" stroke="#000000" stroke-width="1" stroke-linecap="square"/>
<polyline points="114,1014 114,1034 120,1034" fill="none" stroke="#000000" stroke-width="1" stroke-linecap="square"/>
<polyline points="66,985 66,1013 114,1013" fill="none" stroke="#000000" stroke-width="1" stroke-linecap="square"/>
<polyline points="56,863 56,984 66,984" fill="none" stroke="#000000" stroke-width="1" stroke-linecap="square"/>
<text x="436" y="1069" fill="#212121" font-size="11" font-family="MS Sans Serif" >99</text>
<text x="386" y="494" fill="#212121" font-size="11" font-family="MS Sans Serif" >80</text>
<text x="363" y="512" fill="#212121" font-size="11" font-family="MS Sans Serif" >100</text>
<text x="122" y="950" fill="#212121" font-size="11" font-family="MS Sans Serif" >100</text>
<text x="132" y="925" fill="#212121" font-size="11" font-family="MS Sans Serif" >100</text>
<text x="94" y="1030" fill="#212121" font-size="11" font-family="MS Sans Serif" >99</text>
<text x="285" y="38" fill="#212121" font-size="11" font-family="MS Sans Serif" >100</text>
<text x="303" y="566" fill="#212121" font-size="11" font-family="MS Sans Serif" >100</text>
<text x="320" y="157" fill="#212121" font-size="11" font-family="MS Sans Serif" >99</text>
<text x="301" y="277" fill="#212121" font-size="11" font-family="MS Sans Serif" >100</text>
<text x="277" y="638" fill="#212121" font-size="11" font-family="MS Sans Serif" >100</text>
<text x="285" y="769" fill="#212121" font-size="11" font-family="MS Sans Serif" >99</text>
<text x="288" y="686" fill="#212121" font-size="11" font-family="MS Sans Serif" >99</text>
<text x="290" y="793" fill="#212121" font-size="11" font-family="MS Sans Serif" >66</text>
<text x="278" y="739" fill="#212121" font-size="11" font-family="MS Sans Serif" >99</text>
<text x="278" y="584" fill="#212121" font-size="11" font-family="MS Sans Serif" >100</text>
<text x="255" y="700" fill="#212121" font-size="11" font-family="MS Sans Serif" >80</text>
<text x="276" y="445" fill="#212121" font-size="11" font-family="MS Sans Serif" >95</text>
<text x="265" y="56" fill="#212121" font-size="11" font-family="MS Sans Serif" >100</text>
<text x="292" y="139" fill="#212121" font-size="11" font-family="MS Sans Serif" >100</text>
<text x="229" y="653" fill="#212121" font-size="11" font-family="MS Sans Serif" >100</text>
<text x="100" y="1051" fill="#212121" font-size="11" font-family="MS Sans Serif" >63</text>
<text x="246" y="427" fill="#212121" font-size="11" font-family="MS Sans Serif" >100</text>
<text x="231" y="326" fill="#212121" font-size="11" font-family="MS Sans Serif" >100</text>
<text x="282" y="259" fill="#212121" font-size="11" font-family="MS Sans Serif" >88</text>
<text x="268" y="238" fill="#212121" font-size="11" font-family="MS Sans Serif" >96</text>
<text x="237" y="86" fill="#212121" font-size="11" font-family="MS Sans Serif" >77</text>
<text x="231" y="215" fill="#212121" font-size="11" font-family="MS Sans Serif" >51</text>
<text x="216" y="139" fill="#212121" font-size="11" font-family="MS Sans Serif" >63</text>
<text x="59" y="886" fill="#212121" font-size="11" font-family="MS Sans Serif" >35</text>
<text x="46" y="1001" fill="#212121" font-size="11" font-family="MS Sans Serif" >56</text>
<text x="76" y="907" fill="#212121" font-size="11" font-family="MS Sans Serif" >47</text>
<text x="183" y="377" fill="#212121" font-size="11" font-family="MS Sans Serif" >57</text>
<text x="202" y="406" fill="#212121" font-size="11" font-family="MS Sans Serif" >45</text>
<text x="196" y="214" fill="#212121" font-size="11" font-family="MS Sans Serif" >92</text>
<text x="162" y="284" fill="#212121" font-size="11" font-family="MS Sans Serif" >97</text>
<text x="173" y="594" fill="#212121" font-size="11" font-family="MS Sans Serif" >61</text>
<text x="90" y="608" fill="#212121" font-size="11" font-family="MS Sans Serif" >99</text>
<text x="151" y="537" fill="#212121" font-size="11" font-family="MS Sans Serif" >69</text>
<text x="115" y="399" fill="#212121" font-size="11" font-family="MS Sans Serif" >79</text>
<line x1="60" y1="1112" x2="144" y2="1112" stroke="#000000" stroke-width="1" stroke-linecap="square"/>
<line x1="60" y1="1108" x2="60" y2="1116" stroke="#000000" stroke-width="1" stroke-linecap="square"/>
<line x1="144" y1="1108" x2="144" y2="1116" stroke="#000000" stroke-width="1" stroke-linecap="square"/>
<text x="89" y="1142" fill="#212121" font-size="11" font-family="MS Sans Serif" >0.20</text>
</svg>
